<svg width="17" height="16" viewBox="0 0 17 16" fill="none" xmlns="http://www.w3.org/2000/svg">
<path d="M5.96056 1.68864C6.69212 -0.562895 9.87744 -0.562896 10.609 1.68863L10.8894 2.55163C11.2166 3.55855 12.1549 4.24028 13.2136 4.24028H14.121C16.4884 4.24028 17.4728 7.2697 15.5575 8.66122L14.8234 9.19458C13.9669 9.81689 13.6084 10.92 13.9356 11.9269L14.216 12.7899C14.9476 15.0414 12.3706 16.9137 10.4553 15.5222L9.72123 14.9888C8.8647 14.3665 7.70487 14.3665 6.84833 14.9888L6.11423 15.5222C4.19896 16.9137 1.62198 15.0414 2.35355 12.7899L2.63395 11.9269C2.96112 10.92 2.60271 9.81689 1.74618 9.19458L1.01207 8.66122C-0.903194 7.2697 0.0811226 4.24028 2.44852 4.24028H3.35593C4.41466 4.24028 5.35299 3.55855 5.68015 2.55163L5.96056 1.68864Z" fill="black"/>
</svg>
