<svg width="13" height="12" viewBox="0 0 13 12" fill="none" xmlns="http://www.w3.org/2000/svg">
<path d="M4.69469 1.11198C5.17643 -0.370661 7.27397 -0.370661 7.75571 1.11198L8.12204 2.23945C8.33749 2.90251 8.95537 3.35143 9.65255 3.35143H10.838C12.397 3.35143 13.0452 5.34631 11.784 6.26263L10.8249 6.95945C10.2608 7.36924 10.0248 8.09561 10.2403 8.75867L10.6066 9.88614C11.0883 11.3688 9.3914 12.6017 8.13019 11.6854L7.1711 10.9885C6.60708 10.5788 5.84332 10.5788 5.27929 10.9885L4.32021 11.6854C3.059 12.6017 1.36205 11.3688 1.84379 9.88614L2.21013 8.75867C2.42557 8.09561 2.18956 7.36924 1.62553 6.95945L0.666442 6.26263C-0.594766 5.34631 0.0534093 3.35143 1.61235 3.35143H2.79784C3.49502 3.35143 4.11291 2.90251 4.32835 2.23945L4.69469 1.11198Z" fill="url(#paint0_linear_0_21)"/>
<defs>
<linearGradient id="paint0_linear_0_21" x1="-0.987943" y1="-2.10753" x2="12.2806" y2="9.72991" gradientUnits="userSpaceOnUse">
<stop stop-color="#FF006B"/>
<stop offset="1" stop-color="#FF4593"/>
</linearGradient>
</defs>
</svg>
