<svg width="13" height="12" viewBox="0 0 13 12" fill="none" xmlns="http://www.w3.org/2000/svg">
<path d="M4.69468 1.11199C5.17642 -0.370649 7.27396 -0.370649 7.7557 1.11199L8.12203 2.23946C8.33747 2.90252 8.95536 3.35144 9.65254 3.35144H10.838C12.397 3.35144 13.0451 5.34631 11.7839 6.26263L10.8249 6.95945C10.2608 7.36924 10.0248 8.09561 10.2403 8.75867L10.6066 9.88614C11.0883 11.3688 9.39139 12.6017 8.13018 11.6854L7.17109 10.9885C6.60707 10.5787 5.84331 10.5787 5.27928 10.9885L4.3202 11.6854C3.05899 12.6017 1.36205 11.3688 1.84379 9.88614L2.21013 8.75867C2.42557 8.09561 2.18955 7.36924 1.62553 6.95945L0.666441 6.26263C-0.594765 5.34631 0.0534092 3.35144 1.61235 3.35144H2.79784C3.49502 3.35144 4.11291 2.90251 4.32835 2.23946L4.69468 1.11199Z" fill="url(#paint0_linear_2_1513)"/>
<defs>
<linearGradient id="paint0_linear_2_1513" x1="0.809377" y1="-2.43789" x2="7.77256" y2="11.8753" gradientUnits="userSpaceOnUse">
<stop stop-color="#101010"/>
<stop offset="1" stop-color="#2F2F2F"/>
</linearGradient>
</defs>
</svg>
